<svg viewBox="0 0 24 24" fill="none" xmlns="http://www.w3.org/2000/svg" class="m-icon"><g clip-path="url(#clip0_422_281)"><path d="M16 4.4c1.99 0 3.6 1.61 3.6 3.6v8c0 1.99-1.61 3.6-3.6 3.6H8c-1.99 0-3.6-1.61-3.6-3.6V8c0-1.99 1.61-3.6 3.6-3.6zM16 3H8C5.24 3 3 5.24 3 8v8c0 2.76 2.24 5 5 5h8c2.76 0 5-2.24 5-5V8c0-2.76-2.24-5-5-5" fill="white"></path><path d="M12 15.9a3.9 3.9 0 1 0 0-7.8 3.9 3.9 0 0 0 0 7.8Z" stroke="white" stroke-width="1.4" stroke-miterlimit="10"></path><path d="M16.98 7.88a.7.7 0 1 0 0-1.4.7.7 0 0 0 0 1.4" fill="white"></path></g><defs><clipPath id="clip0_422_281"><rect width="18" height="18" fill="white" transform="translate(3 3)"></rect></clipPath></defs></svg>

