<svg viewBox="0 0 24 24" fill="none" xmlns="http://www.w3.org/2000/svg" class="m-icon"><path d="M21.706 2.264c-.36-.305-.925-.349-1.51-.114-.616.246-17.406 7.448-18.09 7.743-.124.043-1.21.448-1.098 1.35.1.814.973 1.15 1.08 1.19l4.268 1.461c.283.943 1.327 4.421 1.558 5.164.144.463.379 1.072.79 1.197.36.14.72.012.952-.17l2.61-2.42 4.213 3.285.1.06q.429.19.822.19.303 0 .581-.114c.631-.259.884-.86.91-.929L22.04 3.8c.192-.873-.075-1.318-.333-1.536M10.12 14.479l-1.44 3.84-1.44-4.8 11.04-8.16z" fill="white"></path></svg>