
<svg width="24" height="16" viewBox="0 0 24 16" fill="none" xmlns="http://www.w3.org/2000/svg">
<path d="M2.64748 9.15109H2.95923H3.29496C3.94245 9.15109 4.42206 8.62351 4.42206 8.00001C4.42206 7.35253 3.94245 6.84893 3.29496 6.82495H2.79137H2.6235C2.55156 6.82495 2.5036 6.87291 2.5036 6.94485V7.04077V7.6403V8.33574V8.93526V9.03118C2.52758 9.10312 2.57554 9.15109 2.64748 9.15109ZM2.40767 6.32135H2.83933H3.31894C4.2542 6.32135 4.97362 7.06476 4.9976 8.00001C4.9976 8.59953 4.68585 9.12711 4.15827 9.43886C3.89448 9.58274 3.6307 9.65468 3.31894 9.67866H2.83933H2.40767H2.38369C2.16787 9.67866 2 9.5108 2 9.29497V9.27099V8.69545V7.97603V7.2566V6.70504C2 6.48922 2.16787 6.32135 2.38369 6.32135H2.40767Z" fill="#A2A5AF"/>
<path d="M5.71704 9.29492V8.71938V7.99995V7.28053V6.70499V6.58508C5.71704 6.4412 5.83695 6.34528 5.95685 6.34528H5.98083C6.12471 6.34528 6.22064 6.46518 6.22064 6.58508V6.70499V7.28053V7.99995V8.71938V9.29492V9.41482C6.22064 9.55871 6.10073 9.65463 5.98083 9.65463C5.83695 9.65463 5.74102 9.53472 5.74102 9.41482V9.29492H5.71704Z" fill="#A2A5AF"/>
<path d="M7.39557 6.34529C7.29965 6.27334 7.15576 6.32131 7.15576 6.46519V9.27095V9.41483C7.15576 9.55872 7.27567 9.67862 7.41955 9.67862C7.56344 9.67862 7.68334 9.55872 7.68334 9.41483V9.24697V8.64745V7.952V7.35248V7.23258L7.7313 7.28054L8.06703 7.56831L8.42674 7.88006C8.59461 8.02394 8.83442 8.02394 9.00228 7.88006L9.02627 7.85608L9.38598 7.54433L9.72171 7.25656L9.76967 7.2086V7.3285V7.92802V8.62346V9.22298V9.39085C9.76967 9.53474 9.88957 9.65464 10.0335 9.65464C10.1773 9.65464 10.2972 9.53474 10.2972 9.39085V9.27095V6.44121C10.2972 6.32131 10.1534 6.24936 10.0574 6.32131L8.95432 7.28054L8.8584 7.35248C8.78646 7.42442 8.66655 7.42442 8.57063 7.35248L7.39557 6.34529Z" fill="#A2A5AF"/>
<path d="M12.144 6.92085C11.7603 7.16066 11.5685 7.54435 11.5445 7.99999C11.5445 8.67145 12.0481 9.22301 12.7435 9.22301C13.439 9.22301 13.9186 8.67145 13.9426 7.97601C13.9426 7.30455 13.439 6.75299 12.7435 6.72901C12.5277 6.75299 12.3358 6.82493 12.144 6.92085ZM13.6308 6.4892C14.1824 6.80095 14.4941 7.37649 14.4941 7.99999C14.4941 8.9832 13.7267 9.72661 12.7435 9.75059C12.12 9.75059 11.5445 9.43884 11.2327 8.88728C11.0649 8.62349 10.9929 8.33572 10.9929 7.99999C10.9929 7.01678 11.7603 6.24939 12.7435 6.24939C13.0793 6.24939 13.367 6.32133 13.6308 6.4892Z" fill="#A2A5AF"/>
<path d="M17.5156 9.6067C17.2998 9.70263 17.06 9.75059 16.8202 9.75059C16.1967 9.75059 15.6211 9.43884 15.3094 8.88728C15.1415 8.62349 15.0696 8.33572 15.0696 7.99999C15.0696 7.01678 15.837 6.24939 16.8202 6.24939C17.2758 6.24939 17.6355 6.39327 17.9473 6.65706C18.0672 6.75299 18.0672 6.92085 17.9713 7.04076C17.9713 7.04076 17.9713 7.04076 17.9473 7.06474C17.8514 7.16066 17.6835 7.16066 17.5876 7.06474C17.4916 6.99279 17.4197 6.92085 17.2998 6.87289C17.1559 6.80095 16.988 6.77697 16.8202 6.77697C16.1487 6.77697 15.6451 7.32853 15.6211 7.99999C15.6211 8.43164 15.837 8.83932 16.2207 9.05515C16.3885 9.15107 16.6044 9.22301 16.8202 9.22301C16.988 9.22301 17.1559 9.19903 17.2998 9.12709C17.4197 9.07913 17.4916 9.00718 17.5876 8.93524C17.6835 8.83932 17.8514 8.8633 17.9473 8.95922L17.9713 8.9832C18.0672 9.07913 18.0672 9.27097 17.9473 9.3669C17.8034 9.43884 17.6595 9.53476 17.5156 9.6067Z" fill="#A2A5AF"/>
<path d="M19.6499 6.92085C19.2662 7.16066 19.0743 7.54435 19.0503 7.99999C19.0503 8.67145 19.5539 9.22301 20.2494 9.22301C20.9448 9.22301 21.4244 8.67145 21.4484 7.97601C21.4484 7.30455 20.9448 6.75299 20.2494 6.72901C20.0336 6.75299 19.8177 6.82493 19.6499 6.92085ZM21.1367 6.4892C21.6882 6.80095 22 7.37649 22 7.99999C22 8.9832 21.2326 9.72661 20.2494 9.75059C19.6259 9.75059 19.0503 9.43884 18.7386 8.88728C18.5707 8.62349 18.4988 8.33572 18.4988 7.99999C18.4988 7.01678 19.2662 6.24939 20.2494 6.24939C20.5611 6.24939 20.8729 6.32133 21.1367 6.4892Z" fill="#A2A5AF"/>
</svg>
