
<svg width="24" height="16" viewBox="0 0 24 16" fill="none" xmlns="http://www.w3.org/2000/svg">
<path fill-rule="evenodd" clip-rule="evenodd" d="M11.9979 13C14.7592 13.0013 16.9989 10.7637 17 8.00212V8C16.9997 5.23844 14.761 2.99974 11.9995 3C9.23897 3.00026 7.00106 5.23739 7 7.99788C6.99894 10.7594 9.23659 12.9989 11.9979 13ZM11.6821 7.59556C12.0684 7.60194 12.9115 7.61585 12.9115 7.03009L12.9101 7.02956C12.9101 6.42976 12.0987 6.45203 11.7037 6.46287C11.6598 6.46408 11.6211 6.46514 11.5891 6.46519V7.59446C11.6157 7.59446 11.647 7.59498 11.6821 7.59556ZM11.6991 9.41031C12.1621 9.41682 13.1743 9.43103 13.1743 8.78668C13.1743 8.12697 12.1996 8.15036 11.7256 8.16173C11.6733 8.16299 11.627 8.1641 11.5889 8.16412V9.40923C11.6204 9.40921 11.6576 9.40973 11.6991 9.41031ZM12.5931 5.81831C13.323 5.88231 13.9014 6.10684 13.9656 6.77673C14.0392 7.16761 13.84 7.55902 13.4806 7.72934C14.0201 7.85893 14.3584 8.17973 14.2917 8.89881C14.2092 9.79165 13.5449 10.0313 12.5928 10.0857V11.0238H12.0282V10.0982C11.8816 10.0982 11.7314 10.0968 11.5764 10.0937V11.0235H11.0115V10.0839C10.9653 10.0835 10.9188 10.083 10.8719 10.0824C10.7849 10.0815 10.6968 10.0804 10.6077 10.0804H9.87169L9.98409 9.405C9.98409 9.405 10.4027 9.41135 10.3956 9.405C10.5056 9.41161 10.6 9.32778 10.6066 9.21749V7.73463H10.6664C10.6466 7.73199 10.6265 7.73066 10.6066 7.73066V6.6728C10.5844 6.51518 10.4392 6.40463 10.2814 6.42499C10.2882 6.41706 9.87064 6.42499 9.87064 6.42499V5.82016H10.6508V5.82307C10.7659 5.82307 10.8841 5.82077 11.0043 5.81843L11.0108 5.81831V4.8895H11.5759V5.80006C11.7269 5.79689 11.879 5.79398 12.0276 5.79398V4.88924H12.5931V5.81831Z" fill="#A2A5AF"/>
</svg>
