
<svg width="24" height="16" viewBox="0 0 24 16" fill="none" xmlns="http://www.w3.org/2000/svg">
<path d="M6.40147 5.42575H5.42206C5.40221 5.42575 5.38235 5.4456 5.38235 5.46546V5.53163V8.9331C5.38235 9.17796 5.25662 9.40296 5.03824 9.52207C4.95221 9.5684 4.85294 9.59487 4.75368 9.59487H4.73382C4.51544 9.59487 4.30368 9.48237 4.18456 9.30369C4.125 9.20443 4.09191 9.09193 4.09191 8.97943C4.09191 8.95957 4.07206 8.93972 4.05221 8.93972H3.05294C3.03971 8.93972 3.01985 8.94634 3.01324 8.95957C3.00662 8.95957 3 8.97281 3 8.98604C3.02647 9.91913 3.7875 10.6537 4.71397 10.6537H4.74706C5.68015 10.6471 6.44118 9.87943 6.44118 8.9331V5.46546C6.44118 5.4456 6.42132 5.42575 6.40147 5.42575Z" fill="#A2A5AF"/>
<path d="M17.1485 8.00661C16.9698 7.56323 16.6191 7.20588 16.1691 7.02058C15.6926 6.82867 15.1632 6.82867 14.6934 7.02058C14.4684 7.10661 14.2698 7.24558 14.0978 7.41102C13.9323 7.58308 13.8066 7.78161 13.7206 7.99999C13.6279 8.23823 13.575 8.4897 13.5816 8.74117C13.5816 8.99926 13.6279 9.25073 13.7206 9.48896C13.8066 9.70735 13.9323 9.91249 14.0978 10.0846C14.2698 10.2566 14.4684 10.389 14.6934 10.475C15.1698 10.6603 15.6926 10.6603 16.1691 10.475C16.3875 10.3823 16.586 10.25 16.7581 10.0846C16.9235 9.91249 17.0559 9.71396 17.1485 9.48896C17.2412 9.25073 17.2875 8.99926 17.2875 8.74117C17.2941 8.49632 17.2412 8.24485 17.1485 8.00661ZM14.8985 8.07941C14.9647 8.01323 15.0441 7.96029 15.1368 7.9272C15.3287 7.85441 15.5404 7.85441 15.7323 7.9272C15.825 7.96029 15.9044 8.01985 15.9772 8.08602C16.05 8.16543 16.1096 8.25808 16.1493 8.35735C16.2353 8.61543 16.2353 8.89338 16.1493 9.15146C16.1096 9.25735 16.05 9.34999 15.9772 9.42941C15.911 9.5022 15.825 9.55514 15.7323 9.59485C15.5404 9.66764 15.3287 9.66764 15.1434 9.59485C15.0507 9.55514 14.9713 9.5022 14.9051 9.42941C14.8323 9.34999 14.7728 9.25735 14.7331 9.15146C14.6404 8.89999 14.6404 8.62205 14.7331 8.36396C14.7662 8.25808 14.8191 8.15882 14.8985 8.07941Z" fill="#A2A5AF"/>
<path d="M20.9999 8.37057V10.614C20.9999 10.6338 20.9801 10.6537 20.9602 10.6537H20.9999H19.9808C19.961 10.6537 19.9411 10.6338 19.9411 10.614V8.54925C19.9477 8.4566 19.9345 8.36395 19.9147 8.2713C19.8882 8.19189 19.8419 8.11248 19.7823 8.05292C19.7558 8.03307 19.736 8.0066 19.7095 7.99336C19.6235 7.9338 19.4647 7.90733 19.3654 7.90733C19.1801 7.90733 19.0147 7.99998 18.9088 8.15219C18.8691 8.21175 18.8492 8.27792 18.836 8.35072C18.8227 8.41027 18.8227 8.46322 18.8227 8.52277C18.8227 8.52939 18.8227 8.54263 18.8227 8.54925V10.614C18.8227 10.6338 18.8029 10.6537 18.783 10.6537H17.8036C17.7838 10.6537 17.7639 10.6338 17.7639 10.614V6.98748C17.7639 6.96763 17.7838 6.94778 17.8036 6.94778H17.797H18.783C18.8095 6.94778 18.8227 6.96763 18.8227 6.98748V7.17278C18.8227 7.17939 18.8227 7.18601 18.8294 7.19263C18.836 7.19925 18.8426 7.19925 18.8492 7.19263C18.9088 7.1463 18.9749 7.1066 19.0411 7.08013C19.4249 6.90807 19.8551 6.90145 20.2522 7.05366C20.4176 7.12645 20.5632 7.23233 20.6757 7.3713C20.7882 7.50366 20.8742 7.66248 20.9205 7.82792C20.9735 8.0066 20.9999 8.18527 20.9999 8.37057Z" fill="#A2A5AF"/>
<path d="M13.0853 6.94778H12.5029C12.4831 6.94778 12.4632 6.92793 12.4632 6.90808V5.46543C12.4632 5.44558 12.4434 5.42573 12.4235 5.42573H11.4441C11.4242 5.42573 11.4044 5.44558 11.4044 5.46543V5.34631V6.8419C11.4044 6.86175 11.3845 6.88161 11.3647 6.88161H11.047C11.0272 6.88161 11.0073 6.90146 11.0073 6.92131V7.83455C11.0073 7.86102 11.0272 7.87425 11.047 7.87425H11.3647C11.3845 7.87425 11.4044 7.89411 11.4044 7.91396V9.13823C11.4044 9.95881 12.0595 10.6272 12.8735 10.6272C12.9463 10.6272 13.0191 10.6206 13.0919 10.614C13.1117 10.6073 13.125 10.5941 13.125 10.5743V9.56837C13.125 9.54852 13.1051 9.52867 13.0853 9.52867H12.8536C12.6617 9.52867 12.4831 9.3897 12.4632 9.19117C12.4632 9.17793 12.4632 9.15808 12.4632 9.14484V7.98014C12.4632 7.95367 12.4831 7.94043 12.5029 7.94043H13.0853C13.1051 7.94043 13.125 7.92058 13.125 7.90073V6.99411C13.125 6.96764 13.1051 6.94778 13.0853 6.94778Z" fill="#A2A5AF"/>
<path d="M9.89569 7.30512C9.88246 7.29188 9.8626 7.27865 9.84275 7.26541C9.45893 6.98747 8.97584 6.86835 8.5126 6.94777H8.48613C8.32731 6.96762 8.16849 7.00732 8.0229 7.06688C7.80452 7.15953 7.60599 7.29188 7.44054 7.45732C7.2751 7.62277 7.14275 7.82791 7.0501 8.04629C6.95746 8.28453 6.91113 8.536 6.91113 8.78747C6.91113 9.03894 6.95746 9.29041 7.0501 9.52865C7.13613 9.74703 7.26849 9.95218 7.43393 10.1176C7.59937 10.2831 7.7979 10.4154 8.0229 10.5081C8.23466 10.5941 8.45304 10.6404 8.67804 10.647C8.73099 10.647 8.78393 10.6536 8.84349 10.6536H8.9626C9.5251 10.6139 10.0347 10.3095 10.3391 9.83968C10.3457 9.83306 10.3457 9.81982 10.3457 9.81321C10.3457 9.80659 10.3391 9.79335 10.3325 9.79335C10.3325 9.78674 10.3258 9.78674 10.3192 9.78674L9.44569 9.54188C9.42584 9.53527 9.39937 9.52865 9.3729 9.53527C9.34643 9.54188 9.31334 9.55512 9.29349 9.56835L9.28687 9.57497C9.0751 9.71394 8.8104 9.74041 8.57216 9.65438C8.56554 9.65438 8.56554 9.64777 8.55893 9.64777C8.34054 9.56174 8.16849 9.38306 8.09569 9.15806C8.09569 9.15144 8.09569 9.13821 8.09569 9.13821C8.10231 9.13159 8.10231 9.13159 8.10893 9.13159H10.4053C10.4185 9.13159 10.4383 9.12497 10.4383 9.10512C10.5442 8.74115 10.5244 8.35732 10.3854 8.01321C10.2861 7.73527 10.1141 7.49703 9.89569 7.30512ZM9.4126 8.27129H8.10231C8.10893 8.25144 8.11554 8.23159 8.12878 8.21174L8.1354 8.1985C8.16187 8.16541 8.18834 8.12571 8.21481 8.09924C8.28099 8.02644 8.3604 7.9735 8.45304 7.94041C8.64496 7.86762 8.85672 7.86762 9.04863 7.94041C9.19422 7.99997 9.31334 8.09924 9.39937 8.23159C9.39937 8.24482 9.40599 8.25806 9.4126 8.27129Z" fill="#A2A5AF"/>
</svg>
